<?xml version="1.0" encoding="UTF-8"?> <svg xmlns="http://www.w3.org/2000/svg" width="36.258" height="35.994" viewBox="0 0 36.258 35.994"><defs><style>.a{fill:#fff;}</style></defs><g transform="translate(0 0)"><path class="a" d="M35.535,34.742H4.33l3.938-4.382a2.477,2.477,0,0,0,3.366-1.066l4.024,1.016a2.48,2.48,0,1,0,4.08-2.095l3.281-7.842,2.337,5.959a2.481,2.481,0,1,0,3.912,1.124l2.866-2.866a.722.722,0,1,0-1.021-1.022l-2.7,2.7a2.467,2.467,0,0,0-1.489-.5c-.077,0-.152,0-.227.011L23.82,18.459l2.886-6.9c.071.006.142.01.214.01a2.485,2.485,0,0,0,2.4-1.846h4.547a.722.722,0,1,0,0-1.445h-4.6a2.48,2.48,0,1,0-3.9,2.741l-2.3,5.506L19.7,7.946a2.481,2.481,0,1,0-3.581-.282l-5.954,9.022a2.477,2.477,0,0,0-1.669.007L3.379,9.962V2.585a.722.722,0,0,0-1.445,0v7.1H.722a.722.722,0,0,0,0,1.445H1.934V18.39H.722a.722.722,0,0,0,0,1.445H1.934V27.27H.722a.722.722,0,0,0,0,1.445H1.934v6.75a.722.722,0,0,0,.722.722H8.879v.948a.722.722,0,0,0,1.445,0v-.948h7.259v.948a.722.722,0,0,0,1.445,0v-.948h7.435v.948a.722.722,0,0,0,1.445,0v-.948h7.629a.722.722,0,0,0,0-1.445ZM26.92,27.22a1.036,1.036,0,1,1-1.036,1.036A1.037,1.037,0,0,1,26.92,27.22Zm0-19.165a1.036,1.036,0,1,1-1.036,1.036A1.037,1.037,0,0,1,26.92,8.055ZM9.426,29.2a1.036,1.036,0,1,1,1.036-1.036A1.037,1.037,0,0,1,9.426,29.2Zm8.7,1.934A1.036,1.036,0,1,1,19.165,30.1,1.037,1.037,0,0,1,18.129,31.138ZM18.041,5.066A1.036,1.036,0,1,1,17.005,6.1,1.037,1.037,0,0,1,18.041,5.066Zm-8.7,12.923A1.036,1.036,0,1,1,8.3,19.025,1.037,1.037,0,0,1,9.338,17.989ZM3.379,12.35l3.959,5.21a2.48,2.48,0,1,0,3.988-.016l5.987-9.071a2.468,2.468,0,0,0,1.072.085l3.876,9.884-3.848,9.2A2.473,2.473,0,0,0,15.961,28.9l-4.074-1.029a2.48,2.48,0,1,0-4.646,1.473l-3.863,4.3Z" transform="translate(0 -1.863)"></path></g><g transform="translate(32.791 18.945)"><path class="a" d="M464.852,269.6a.722.722,0,0,0-1.021,0l-.571.571a.722.722,0,0,0,1.021,1.022l.572-.571A.723.723,0,0,0,464.852,269.6Z" transform="translate(-463.048 -269.388)"></path></g></svg> 