<?xml version="1.0" encoding="UTF-8"?> <svg xmlns="http://www.w3.org/2000/svg" width="35.3" height="34.07" viewBox="0 0 35.3 34.07"><defs><style>.a{fill:#fff;stroke:#fff;stroke-width:0.3px;}</style></defs><path class="a" d="M31.24-.615H3.76A3.573,3.573,0,0,1,1.094-1.743,3.662,3.662,0,0,1,0-4.375V-29.531a5.208,5.208,0,0,1,1.538-3.452,4.691,4.691,0,0,1,3.452-1.4h18.8a4.755,4.755,0,0,1,3.042,1.06,4.873,4.873,0,0,1,1.743,2.7h3.281a.544.544,0,0,1,.615.615v4.648A3.354,3.354,0,0,1,35-21.875v17.5a3.662,3.662,0,0,1-1.094,2.632A3.573,3.573,0,0,1,31.24-.615ZM23.789-33.154H4.99a3.573,3.573,0,0,0-2.666,1.128A3.662,3.662,0,0,0,1.23-29.395a3.586,3.586,0,0,0,2.6,3.623,5.846,5.846,0,0,1,1.88-3.452,5.161,5.161,0,0,1,3.589-1.4H27.275a3.483,3.483,0,0,0-1.333-1.812A3.6,3.6,0,0,0,23.789-33.154Zm7.451,3.76H9.3A4.063,4.063,0,0,0,6.46-28.3a4.261,4.261,0,0,0-1.4,2.666H31.24Zm2.529,13.74H28.232a1.91,1.91,0,0,0-1.4.581,1.91,1.91,0,0,0-.581,1.4v1.094a1.91,1.91,0,0,0,.581,1.4,1.91,1.91,0,0,0,1.4.581H33.77Zm0,6.289H28.232a3.143,3.143,0,0,1-2.256-.923,3.053,3.053,0,0,1-.957-2.29v-1.094a3.053,3.053,0,0,1,.957-2.29,3.143,3.143,0,0,1,2.256-.923H33.77v-4.99a2.43,2.43,0,0,0-.752-1.777A2.43,2.43,0,0,0,31.24-24.4H4.375a.761.761,0,0,1-.342-.068,5.243,5.243,0,0,1-2.8-1.572v21.67A2.43,2.43,0,0,0,1.982-2.6a2.43,2.43,0,0,0,1.777.752H31.24A2.43,2.43,0,0,0,33.018-2.6a2.43,2.43,0,0,0,.752-1.777ZM4.99-5.605a.544.544,0,0,1-.615.615.544.544,0,0,1-.615-.615v-8.75a.544.544,0,0,1,.615-.615.544.544,0,0,1,.615.615Zm0-12.51a.544.544,0,0,1-.615.615.544.544,0,0,1-.615-.615v-2.529a.544.544,0,0,1,.615-.615.544.544,0,0,1,.615.615v2.529Z" transform="translate(0.15 34.535)"></path></svg> 