<?xml version="1.0" encoding="UTF-8"?> <svg xmlns="http://www.w3.org/2000/svg" width="42.817" height="40.517" viewBox="0 0 42.817 40.517"><defs><style>.a{fill:#fff;}</style></defs><path class="a" d="M8.027,52.035l4.211,7.295a3.345,3.345,0,1,0,5.794-3.345l-2.509-4.346L17.7,50.384A.836.836,0,0,0,18,49.242l-1.087-1.884,16.018-3.142a2.508,2.508,0,0,0,2.034-3.759l-2.779-4.814,1.776-2.69a.837.837,0,0,0,.026-.879l-1.673-2.9a.838.838,0,0,0-.775-.417l-3.217.193L25.239,23.61A2.487,2.487,0,0,0,23.1,22.356h-.032a2.487,2.487,0,0,0-2.112,1.157L10.029,37.429l-7.1,4.1a5.854,5.854,0,0,0,5.1,10.505Zm8.557,4.787a1.673,1.673,0,0,1-2.9,1.672L9.505,51.25l2.9-1.673,4.182,7.244Zm-1.9-6.631-.836-1.448,1.448-.836.836,1.448Zm16.44-19.729,1.156,2-1.031,1.561L29.26,30.574Zm-8.774-6.032a.836.836,0,0,1,1.438.017l9.727,16.848a.836.836,0,0,1-.7,1.254,3.07,3.07,0,0,0-.459.078L22.066,24.8c.216-.278.244-.3.286-.375Zm-1.4,1.792L30.62,42.966l-14.59,2.862-4.436-7.684ZM2.233,48.69a4.179,4.179,0,0,1,1.53-5.712l6.518-3.763,4.181,7.242L7.945,50.221A4.186,4.186,0,0,1,2.233,48.69Zm0,0" transform="translate(0 -20.486)"></path><path class="a" d="M441.365,42.587,436.7,45.18a.836.836,0,1,0,.813,1.462l4.66-2.593a.836.836,0,0,0-.813-1.462Zm0,0" transform="translate(-399.79 -38.928)"></path><path class="a" d="M444.347,137.515l-3.231-.866a.836.836,0,1,0-.433,1.615l3.231.866a.836.836,0,1,0,.433-1.615Zm0,0" transform="translate(-403.262 -125.196)"></path><path class="a" d="M384.388.62l-.867,3.231a.836.836,0,0,0,1.616.433L386,1.053A.836.836,0,1,0,384.388.62Zm0,0" transform="translate(-351.422 0)"></path></svg> 