<?xml version="1.0" encoding="UTF-8"?> <svg xmlns="http://www.w3.org/2000/svg" width="39.107" height="36.051" viewBox="0 0 39.107 36.051"><defs><style>.a{fill:#fff;}</style></defs><path class="a" d="M310.056,127.491a.764.764,0,1,0,1.08-1.08l-.01-.01a.764.764,0,1,0-1.08,1.08Z" transform="translate(-286.158 -118.066)"></path><path class="a" d="M36.221,36.651l2.662-2.662a.764.764,0,0,0-.54-1.3H32.824A16.652,16.652,0,1,0,4.877,48.425a16.77,16.77,0,0,0,3.061,2.421l-2.3,4.065a.764.764,0,0,0,.665,1.14h3.934a.764.764,0,0,0,.665-.388l1.627-2.875a16.852,16.852,0,0,0,8.248,0L22.4,55.664a.764.764,0,0,0,.665.388H27a.764.764,0,0,0,.665-1.14l-2.3-4.065a16.773,16.773,0,0,0,3.061-2.421,16.594,16.594,0,0,0,4.4-7.808h5.519a.764.764,0,0,0,.54-1.3Zm-1.4-.764h-5.33l1.675-1.675H36.5ZM9.79,54.524H7.611l1.662-2.937a16.422,16.422,0,0,0,1.756.747Zm15.9,0H23.512l-1.24-2.19a16.423,16.423,0,0,0,1.756-.747Zm1.654-7.179A15.192,15.192,0,0,1,24,49.878l-.045.022-.027.017A14.926,14.926,0,0,1,21,51.143a.757.757,0,0,0-.119.034,15.272,15.272,0,0,1-8.452,0,.758.758,0,0,0-.119-.034,14.924,14.924,0,0,1-2.928-1.226L9.351,49.9l-.045-.022a15.189,15.189,0,0,1-3.349-2.533,15.123,15.123,0,1,1,25.29-14.66h-.4a.764.764,0,0,0-.54.224l-2.027,2.027a11.768,11.768,0,0,0-1.331-3.967.764.764,0,0,0-1.337.738,10.143,10.143,0,0,1,1.234,4.18H23.482a6.876,6.876,0,1,0,0,1.528h3.364a10.225,10.225,0,1,1-5.252-9.729.764.764,0,1,0,.738-1.337,11.847,11.847,0,0,0-7.254-1.355A11.763,11.763,0,1,0,28.287,38.369l2.024,2.024a.764.764,0,0,0,.54.224h.4A15.074,15.074,0,0,1,27.345,47.345Zm-8.2-12.134a.764.764,0,0,0-1.043-.28l-1.833,1.058a.764.764,0,0,0,0,1.323L18.1,38.371a.763.763,0,0,0,1.086-.956h2.755a5.306,5.306,0,0,1-1.512,3.017h0a5.345,5.345,0,1,1,1.512-4.544H19.188A.762.762,0,0,0,19.145,35.211Zm12.023,3.879-1.675-1.675h5.33L36.5,39.089Z" transform="translate(0 -20)"></path></svg> 